<svg width="138" height="32" viewBox="0 0 138 32" fill="none" xmlns="http://www.w3.org/2000/svg">
<g clip-path="url(#clip0_2501_3247)">
<path d="M34.4923 20.552L33.6052 17.7897L28.7647 16.529H33.3645L30.9125 9.4904L32.9526 5.69551H29.5123L27.979 0.00633538L23.4806 4.80855L25.8312 0.00633538H19.4256L17.2398 3.27539L15.0539 0.00633538H8.6484L10.999 4.80855L6.50689 0L4.97362 5.68917H1.53326L3.5734 9.48406L1.12143 16.5227H5.72124L0.880669 17.7834L-0.00634766 20.5456L5.55018 24.1885L8.61672 22.1422L6.94406 25.1768L12.1268 28.5345L13.8311 26.1334L13.6917 29.6813L17.2398 32L20.7879 29.6813L20.6485 26.1334L22.3528 28.5345L27.5355 25.1768L25.8629 22.1422L28.9294 24.1885L34.4859 20.5456L34.4923 20.552ZM23.3158 15.4393L21.3707 21.2299L22.5302 24.4672H11.962L13.1215 21.2299L11.1764 15.4393L7.93879 15.5787L8.99687 7.02594L17.2461 9.34468L25.4954 7.02594L26.5535 15.5787L23.3158 15.4393Z" fill="#00172D"/>
<path d="M16.2009 11.7267L11.8799 10.6244L15.0985 13.1205L14.4839 15.7687L16.2009 11.7267Z" fill="#00172D"/>
<path d="M18.2915 11.7267L22.6125 10.6244L19.3939 13.1205L20.0085 15.7687L18.2915 11.7267Z" fill="#00172D"/>
<path d="M17.4935 20.0768V18.9935C18.748 18.8034 20.2686 17.3336 20.2686 17.3336V16.6304H14.2116V17.3336C14.2116 17.3336 15.7322 18.8034 16.9867 18.9935V20.0768L14.0342 21.1918V22.0535L17.2401 21.0145L20.446 22.0535V21.1918L17.4935 20.0768Z" fill="#00172D"/>
<path d="M44.0782 17.9799H41.5186V7.26672H48.8238C51.5228 7.26672 52.5936 8.3184 52.5936 11.0173C52.5809 13.7351 51.4975 14.8122 48.8554 14.8122H44.0846V17.9799H44.0782ZM48.3549 12.6835C49.6538 12.6835 50.0212 12.1766 50.0212 11.0173C50.0212 9.9656 49.6981 9.39541 48.3549 9.39541H44.0782V12.6835H48.3549Z" fill="#00172D"/>
<path d="M63.4851 17.9799V16.3136C63.4851 15.262 62.9275 14.7995 61.4449 14.7995H56.4713V17.9799H53.9053V7.26672H62.0405C64.2644 7.26672 65.8547 7.99529 65.8547 11.0363C65.8547 12.6708 65.0817 13.3677 64.296 13.8302C65.3605 14.185 66.0384 14.6031 66.0384 15.7625V17.9862H63.4724L63.4851 17.9799ZM56.4776 12.6708H61.8377C62.9338 12.6708 63.3013 12.1893 63.3013 11.0363C63.3013 9.88324 62.9782 9.40175 61.8377 9.40175H56.4776V12.6771V12.6708Z" fill="#00172D"/>
<path d="M67.7808 7.26672H78.7291V9.28771H70.3468V11.6318H78.4693V13.5007H70.3468V15.9525H78.7291V17.9735H67.7808V7.26672Z" fill="#00172D"/>
<path d="M92.5601 10.2887H89.9941C89.9941 9.62347 89.7597 9.2877 88.6826 9.2877H84.3743C83.6456 9.2877 83.1388 9.57912 83.1388 10.3964C83.1388 11.372 83.6646 11.4924 84.3743 11.4924H89.0501C91.4134 11.4924 92.5538 11.7395 92.5538 14.7171C92.5538 16.9852 91.5654 17.9735 89.0311 17.9735H83.8611C81.1303 17.9735 80.313 16.9979 80.313 14.9325H82.8727C82.8727 15.4584 83.4112 15.9525 84.1398 15.9525H88.4292C89.557 15.9525 89.9878 15.5851 89.9878 14.7171C89.9878 13.9442 89.8167 13.5134 88.3532 13.5134H84.558C81.6372 13.5134 80.5728 13.0066 80.5728 10.2887C80.5728 8.12832 81.6815 7.26038 84.539 7.26038H88.8917C91.4831 7.26038 92.5538 8.21702 92.5538 10.2887H92.5601Z" fill="#00172D"/>
<path d="M105.574 7.26672V9.39541H101.05V17.9799H98.4902V9.39541H94.0107V7.26672H105.574Z" fill="#00172D"/>
<path d="M109.73 17.9799H107.17V7.26672H109.73V17.9799Z" fill="#00172D"/>
<path d="M124.645 11.6952V14.5524C124.645 17.1309 123.517 17.9798 120.754 17.9798H115.565C112.942 17.9798 111.612 16.9155 111.612 14.318V11.0299C111.612 8.16001 112.771 7.14001 115.565 7.14001H120.704C123.295 7.14001 124.638 7.75455 124.638 10.4281H122.079C122.079 9.61081 121.584 9.2687 120.038 9.2687H116.256C114.71 9.2687 114.171 9.75019 114.171 11.353V14.0709C114.171 15.5217 114.526 15.8448 116.224 15.8448H120.438C121.717 15.8448 122.072 15.5027 122.072 14.7361V13.5958H117.84V11.6952H124.632H124.645Z" fill="#00172D"/>
<path d="M126.375 7.26672H137.323V9.28771H128.941V11.6318H137.063V13.5007H128.941V15.9525H137.323V17.9735H126.375V7.26672Z" fill="#00172D"/>
<path d="M41.4995 25.3542V21.7303H42.4626V25.3542H41.4995Z" fill="#00172D"/>
<path d="M46.3402 25.3542L44.0846 22.6426V25.3542H43.1216V21.7303H44.5155L46.5113 24.2075V21.7303H47.4743V25.3542H46.3402Z" fill="#00172D"/>
<path d="M48.9948 22.5223V23.2318H51.6748V24.0237H48.9948V25.3478H48.0317V21.724H51.8016V22.5159H49.0011L48.9948 22.5223Z" fill="#00172D"/>
<path d="M54.9885 25.3858H53.7847C52.9483 25.3858 52.2197 25.1704 52.2197 24.0554V23.0291C52.2197 21.914 52.9547 21.705 53.7847 21.705H54.9885C55.7868 21.705 56.5598 21.914 56.5598 23.0291V24.0554C56.5598 25.1704 55.8248 25.3858 54.9885 25.3858ZM55.565 23.1368C55.565 22.5982 55.3116 22.5476 54.9885 22.5476H53.7847C53.4362 22.5476 53.2081 22.5982 53.2081 23.1368V23.954C53.2081 24.4925 53.4299 24.5495 53.7847 24.5495H54.9885C55.337 24.5495 55.565 24.4925 55.565 23.954V23.1368Z" fill="#00172D"/>
<path d="M60.7349 25.3542C60.3548 25.3542 60.1774 25.1704 60.1774 24.8093V24.4355C60.1774 24.1631 60.0697 23.9794 59.7782 23.9794H58.0739V25.3478H57.1108V21.724H60.0063C60.7286 21.724 61.1468 21.876 61.1468 22.7187C61.1468 23.2445 61.0137 23.5296 60.5322 23.5803V23.5929C60.9313 23.6119 61.1468 23.84 61.1468 24.2455V24.4989C61.1468 24.746 61.2418 24.727 61.3749 24.727V25.3415H60.7413L60.7349 25.3542ZM59.8733 22.5223H58.0676V23.2762H59.7592C60.095 23.2762 60.1774 23.2635 60.1774 22.915C60.1774 22.5666 60.1457 22.5159 59.8733 22.5159V22.5223Z" fill="#00172D"/>
<path d="M66.5643 25.3542V22.6933L65.1134 25.3542H64.1757L62.7311 22.6933V25.3542H61.7681V21.7303H63.2063L64.6445 24.3975L66.1398 21.7303H67.5337V25.3542H66.5706H66.5643Z" fill="#00172D"/>
<path d="M71.8606 25.3542L71.5439 24.7333H69.2313L68.9081 25.3542H67.8311L69.7001 21.7303H71.075L72.9441 25.3542H71.8606ZM70.3971 22.4906L69.6178 23.9794H71.1574L70.3971 22.4906Z" fill="#00172D"/>
<path d="M75.1365 22.573V25.3542H74.1735V22.573H72.6719V21.7303H76.6888V22.573H75.1429H75.1365Z" fill="#00172D"/>
<path d="M77.0308 25.3542V21.7303H77.9938V25.3542H77.0308Z" fill="#00172D"/>
<path d="M81.2761 25.3858H80.0723C79.2359 25.3858 78.5073 25.1704 78.5073 24.0554V23.0291C78.5073 21.914 79.2423 21.705 80.0723 21.705H81.2761C82.0744 21.705 82.8474 21.914 82.8474 23.0291V24.0554C82.8474 25.1704 82.1124 25.3858 81.2761 25.3858ZM81.8526 23.1368C81.8526 22.5982 81.5992 22.5476 81.2761 22.5476H80.0723C79.7238 22.5476 79.4957 22.5982 79.4957 23.1368V23.954C79.4957 24.4925 79.7175 24.5495 80.0723 24.5495H81.2761C81.6246 24.5495 81.8526 24.4925 81.8526 23.954V23.1368Z" fill="#00172D"/>
<path d="M86.6488 25.3542L84.3932 22.6426V25.3542H83.4302V21.7303H84.8241L86.8198 24.2075V21.7303H87.7829V25.3542H86.6488Z" fill="#00172D"/>
<path d="M93.4153 22.573V25.3542H92.4523V22.573H90.9507V21.7303H94.9676V22.573H93.4217H93.4153Z" fill="#00172D"/>
<path d="M95.3159 25.3542V21.7303H99.0794V22.5223H96.279V23.1875H98.9717V23.8527H96.279V24.5559H99.1111V25.3478H95.3159V25.3542Z" fill="#00172D"/>
<path d="M103.54 25.1197C103.211 25.3921 102.849 25.3858 102.393 25.3858H101.208C100.359 25.3858 99.5928 25.3351 99.5928 24.011V23.0734C99.5928 21.876 100.277 21.705 101.196 21.705H102.501C103.344 21.705 103.876 21.8063 103.876 22.8897V23.0291H102.881V22.8897C102.849 22.5666 102.615 22.5476 102.298 22.5476H101.094C100.695 22.5476 100.594 22.7123 100.594 23.2318V23.7956C100.594 24.3405 100.664 24.5495 101.113 24.5495H102.298C102.697 24.5495 102.887 24.5179 102.887 24.0934V23.9857H103.882V24.0934C103.882 24.4925 103.882 24.8536 103.546 25.1197H103.54Z" fill="#00172D"/>
<path d="M107.747 25.3542V23.9351H105.384V25.3542H104.421V21.7303H105.384V23.0925H107.747V21.7303H108.71V25.3542H107.747Z" fill="#00172D"/>
<path d="M112.556 25.3542L110.3 22.6426V25.3542H109.337V21.7303H110.731L112.727 24.2075V21.7303H113.69V25.3542H112.556Z" fill="#00172D"/>
<path d="M116.966 25.3858H115.762C114.925 25.3858 114.197 25.1704 114.197 24.0554V23.0291C114.197 21.914 114.932 21.705 115.762 21.705H116.966C117.764 21.705 118.537 21.914 118.537 23.0291V24.0554C118.537 25.1704 117.802 25.3858 116.966 25.3858ZM117.542 23.1368C117.542 22.5982 117.289 22.5476 116.966 22.5476H115.762C115.413 22.5476 115.185 22.5982 115.185 23.1368V23.954C115.185 24.4925 115.407 24.5495 115.762 24.5495H116.966C117.314 24.5495 117.542 24.4925 117.542 23.954V23.1368Z" fill="#00172D"/>
<path d="M119.044 25.3542V21.7303H120.007V24.5116H122.611V25.3542H119.038H119.044Z" fill="#00172D"/>
<path d="M125.728 25.3858H124.524C123.688 25.3858 122.959 25.1704 122.959 24.0554V23.0291C122.959 21.914 123.694 21.705 124.524 21.705H125.728C126.527 21.705 127.3 21.914 127.3 23.0291V24.0554C127.3 25.1704 126.565 25.3858 125.728 25.3858ZM126.305 23.1368C126.305 22.5982 126.051 22.5476 125.728 22.5476H124.524C124.176 22.5476 123.948 22.5982 123.948 23.1368V23.954C123.948 24.4925 124.17 24.5495 124.524 24.5495H125.728C126.077 24.5495 126.305 24.4925 126.305 23.954V23.1368Z" fill="#00172D"/>
<path d="M130.6 25.3858H129.289C128.433 25.3858 127.781 25.1894 127.781 24.0174V23.0797C127.781 21.8823 128.478 21.705 129.365 21.705H130.594C131.361 21.705 132.095 21.705 132.095 22.858H131.113C131.094 22.4905 130.771 22.4905 130.493 22.4905H129.365C128.877 22.4905 128.769 22.6806 128.769 23.2888V23.878C128.769 24.5179 128.991 24.5876 129.39 24.5876H130.594C130.936 24.5876 131.113 24.4799 131.113 23.973H129.878V23.3078H132.095V23.9413C132.095 25.1641 131.753 25.3858 130.594 25.3858H130.6Z" fill="#00172D"/>
<path d="M135.099 24.1315V25.3542H134.136V24.1315L132.197 21.7303H133.369L134.63 23.3142L135.891 21.7303H137.012L135.111 24.1315H135.099Z" fill="#00172D"/>
</g>
<defs>
<clipPath id="clip0_2501_3247">
<rect width="137.323" height="32" fill="white"/>
</clipPath>
</defs>
</svg>
