<svg width="16" height="16" viewBox="0 0 16 16" fill="none" xmlns="http://www.w3.org/2000/svg">
<path d="M15.5 8C15.5 12.1421 12.1421 15.5 8 15.5C3.85788 15.5 0.5 12.1421 0.5 8C0.5 3.85788 3.85788 0.5 8 0.5C12.1421 0.5 15.5 3.85788 15.5 8Z" stroke="white"/>
<path d="M2.97942 8.39129C3.91462 7.87616 4.95855 7.44622 5.93395 7.01409C7.61202 6.30629 9.29675 5.61076 10.9985 4.96322C11.3296 4.85289 11.9245 4.74499 11.9828 5.23566C11.9509 5.93019 11.8195 6.62066 11.7293 7.31112C11.5006 8.82952 11.2362 10.3427 10.9783 11.8561C10.8895 12.3602 10.258 12.6212 9.85395 12.2986C8.88288 11.6427 7.90435 10.9931 6.94568 10.322C6.63165 10.0029 6.92285 9.54466 7.20332 9.31679C8.00312 8.52859 8.85132 7.85892 9.60932 7.02999C9.81378 6.53622 9.20965 6.95236 9.01038 7.07986C7.91545 7.83439 6.84732 8.63499 5.69292 9.29812C5.10325 9.62272 4.41598 9.34532 3.82658 9.16419C3.29811 8.94539 2.52376 8.72492 2.97942 8.39129Z" fill="white"/>
</svg>
