<svg width="16" height="16" viewBox="0 0 16 16" fill="none" xmlns="http://www.w3.org/2000/svg">
<path d="M15.5 8C15.5 12.1421 12.1421 15.5 8 15.5C3.85788 15.5 0.5 12.1421 0.5 8C0.5 3.85788 3.85788 0.5 8 0.5C12.1421 0.5 15.5 3.85788 15.5 8Z" stroke="#00172D"/>
<path d="M2.97938 8.39153C3.91457 7.8764 4.9585 7.44647 5.9339 7.01433C7.61197 6.30653 9.2967 5.611 10.9984 4.96347C11.3295 4.85313 11.9244 4.74523 11.9828 5.2359C11.9508 5.93043 11.8194 6.6209 11.7293 7.31137C11.5005 8.82977 11.2361 10.343 10.9783 11.8564C10.8895 12.3605 10.258 12.6214 9.8539 12.2988C8.88284 11.6429 7.9043 10.9934 6.94564 10.3222C6.6316 10.0031 6.9228 9.5449 7.20327 9.31703C8.00307 8.52883 8.85127 7.85917 9.60927 7.03023C9.81374 6.53647 9.2096 6.9526 9.01034 7.0801C7.9154 7.83463 6.84727 8.63523 5.69287 9.29837C5.1032 9.62297 4.41594 9.34557 3.82654 9.16443C3.29806 8.94563 2.52371 8.72517 2.97938 8.39153Z" fill="#00172D"/>
</svg>
