<svg width="16" height="16" viewBox="0 0 16 16" fill="none" xmlns="http://www.w3.org/2000/svg">
<path d="M1.51211 12.0619L1.56815 11.8619L1.46605 11.6811C0.833717 10.5612 0.500052 9.29144 0.500052 8C0.500052 3.86501 3.86506 0.5 8.00005 0.5C12.135 0.5 15.5001 3.86501 15.5001 8C15.5001 12.135 12.135 15.5 8.00005 15.5C6.76415 15.5 5.54211 15.1927 4.45776 14.6106L4.28803 14.5195L4.10105 14.5658L0.564846 15.4417L1.51211 12.0619Z" stroke="#00172D"/>
<path d="M12.0244 10.8229C11.8533 11.2966 11.0324 11.729 10.638 11.787C10.2839 11.8389 9.83591 11.8611 9.34409 11.7067C9.046 11.6128 8.66339 11.4883 8.1733 11.2792C6.11313 10.4006 4.76774 8.35226 4.66478 8.21696C4.56217 8.08165 3.82617 7.11748 3.82617 6.11957C3.82617 5.12165 4.35661 4.63087 4.54513 4.42774C4.73365 4.22461 4.95591 4.17383 5.09295 4.17383C5.23 4.17383 5.36669 4.17557 5.48669 4.18113C5.61295 4.18739 5.78235 4.13348 5.94895 4.52931C6.12009 4.93557 6.53087 5.93348 6.58165 6.03539C6.63313 6.13696 6.66722 6.25557 6.59904 6.39087C6.53087 6.52618 6.49678 6.6107 6.39382 6.72931C6.29087 6.84791 6.17817 6.99365 6.08565 7.08478C5.98269 7.186 5.87591 7.29557 5.99556 7.4987C6.11522 7.70183 6.52739 8.36583 7.13817 8.90357C7.92252 9.59435 8.58443 9.80861 8.78965 9.91018C8.99487 10.0117 9.11487 9.9947 9.23452 9.85939C9.35417 9.72374 9.74791 9.26705 9.88461 9.06426C10.0213 8.86148 10.1583 8.89487 10.3469 8.9627C10.5354 9.03018 11.5451 9.52061 11.7503 9.62218C11.9556 9.72374 12.0926 9.77452 12.1441 9.85905C12.1956 9.94322 12.1956 10.3495 12.0244 10.8229Z" fill="#00172D"/>
</svg>
