<svg width="16" height="16" viewBox="0 0 16 16" fill="none" xmlns="http://www.w3.org/2000/svg">
<path d="M1.51211 12.0619L1.56814 11.8619L1.46605 11.6811C0.833715 10.5611 0.500052 9.29141 0.500052 7.99997C0.500052 3.865 3.86505 0.5 8.00003 0.5C12.135 0.5 15.5 3.865 15.5 7.99997C15.5 12.1349 12.135 15.4999 8.00003 15.4999C6.76413 15.4999 5.5421 15.1926 4.45774 14.6105L4.28802 14.5194L4.10104 14.5657L0.564846 15.4417L1.51211 12.0619Z" stroke="white"/>
<path d="M12.0243 10.8224C11.8532 11.2961 11.0323 11.7284 10.6379 11.7865C10.2838 11.8384 9.8358 11.8606 9.34398 11.7062C9.04589 11.6123 8.66328 11.4878 8.1732 11.2787C6.11303 10.4001 4.76764 8.35176 4.66469 8.21646C4.56208 8.08115 3.82608 7.11698 3.82608 6.11907C3.82608 5.12116 4.35651 4.63038 4.54503 4.42725C4.73356 4.22412 4.95582 4.17334 5.09286 4.17334C5.2299 4.17334 5.3666 4.17508 5.4866 4.18064C5.61286 4.1869 5.78225 4.13299 5.94886 4.52882C6.11999 4.93508 6.53077 5.93299 6.58155 6.0349C6.63303 6.13646 6.66711 6.25507 6.59894 6.39038C6.53077 6.52568 6.49668 6.6102 6.39372 6.72881C6.29077 6.84742 6.17807 6.99316 6.08555 7.08429C5.9826 7.1855 5.87581 7.29507 5.99546 7.4982C6.11512 7.70133 6.52729 8.36533 7.13807 8.90306C7.92242 9.59384 8.58433 9.8081 8.78954 9.90967C8.99476 10.0112 9.11476 9.99419 9.23441 9.85889C9.35406 9.72324 9.7478 9.26654 9.8845 9.06376C10.0212 8.86098 10.1582 8.89437 10.3468 8.96219C10.5353 9.02967 11.545 9.5201 11.7502 9.62167C11.9554 9.72323 12.0925 9.77402 12.144 9.85854C12.1954 9.94271 12.1954 10.349 12.0243 10.8224Z" fill="white"/>
</svg>
