<svg width="129" height="30" viewBox="0 0 129 30" fill="none" xmlns="http://www.w3.org/2000/svg">
<g clip-path="url(#clip0_2501_246)">
<path d="M32.3365 19.2675L31.5049 16.6779L26.9668 15.4959H31.2792L28.9805 8.89725L30.8931 5.33954H27.6677L26.2303 0.00593942L22.013 4.50802L24.2167 0.00593942H18.2115L16.1623 3.07068L14.113 0.00593942H8.10785L10.3115 4.50802L6.10018 0L4.66274 5.3336H1.4374L3.35003 8.89131L1.05131 15.49H5.36364L0.825597 16.6719L-0.00598145 19.2615L5.20326 22.6767L8.07815 20.7583L6.51003 23.6032L11.3688 26.7511L12.9666 24.5001L12.836 27.8262L16.1623 30L19.4886 27.8262L19.3579 24.5001L20.9557 26.7511L25.8145 23.6032L24.2464 20.7583L27.1213 22.6767L32.3305 19.2615L32.3365 19.2675ZM21.8586 14.4744L20.035 19.903L21.122 22.938H11.2144L12.3014 19.903L10.4778 14.4744L7.44258 14.605L8.43454 6.58681L16.1682 8.76064L23.9019 6.58681L24.8938 14.605L21.8586 14.4744Z" fill="white"/>
<path d="M15.1882 10.9939L11.1372 9.96045L14.1546 12.3006L13.5785 14.7833L15.1882 10.9939Z" fill="white"/>
<path d="M17.1483 10.9939L21.1993 9.96045L18.1818 12.3006L18.758 14.7833L17.1483 10.9939Z" fill="white"/>
<path d="M16.3999 18.8221V17.8065C17.576 17.6283 19.0015 16.2503 19.0015 16.2503V15.5911H13.3231V16.2503C13.3231 16.2503 14.7486 17.6283 15.9247 17.8065V18.8221L13.1567 19.8674V20.6752L16.1623 19.7011L19.1679 20.6752V19.8674L16.3999 18.8221Z" fill="white"/>
<path d="M41.3235 16.8563H38.9238V6.81274H45.7724C48.3028 6.81274 49.3066 7.79869 49.3066 10.3289C49.2947 12.8769 48.279 13.8866 45.8021 13.8866H41.3294V16.8563H41.3235ZM45.3329 11.8909C46.5505 11.8909 46.895 11.4158 46.895 10.3289C46.895 9.34294 46.5921 8.80839 45.3329 8.80839H41.3235V11.8909H45.3329Z" fill="white"/>
<path d="M59.5172 16.8563V15.2942C59.5172 14.3083 58.9945 13.8747 57.6045 13.8747H52.9418V16.8563H50.5361V6.81274H58.1629C60.2478 6.81274 61.7387 7.49578 61.7387 10.3467C61.7387 11.8791 61.014 12.5324 60.2775 12.966C61.2754 13.2986 61.9109 13.6906 61.9109 14.7775V16.8622H59.5053L59.5172 16.8563ZM52.9477 11.8791H57.9728C59.0004 11.8791 59.3449 11.4277 59.3449 10.3467C59.3449 9.26572 59.042 8.81433 57.9728 8.81433H52.9477V11.885V11.8791Z" fill="white"/>
<path d="M63.5444 6.81274H73.8085V8.70742H65.9501V10.905H73.5649V12.6571H65.9501V14.9557H73.8085V16.8504H63.5444V6.81274Z" fill="white"/>
<path d="M86.7752 9.64568H84.3695C84.3695 9.02204 84.1498 8.70725 83.14 8.70725H79.1009C78.4178 8.70725 77.9426 8.98047 77.9426 9.74665C77.9426 10.6613 78.4356 10.7742 79.1009 10.7742H83.4845C85.7001 10.7742 86.7692 11.0058 86.7692 13.7973C86.7692 15.9236 85.8426 16.8502 83.4667 16.8502H78.6198C76.0597 16.8502 75.2935 15.9355 75.2935 13.9993H77.6932C77.6932 14.4922 78.198 14.9555 78.8811 14.9555H82.9024C83.9597 14.9555 84.3636 14.611 84.3636 13.7973C84.3636 13.0727 84.2032 12.6688 82.8311 12.6688H79.2732C76.5349 12.6688 75.537 12.1937 75.537 9.64568C75.537 7.62034 76.5765 6.80664 79.2553 6.80664H83.336C85.7654 6.80664 86.7692 7.70349 86.7692 9.64568H86.7752Z" fill="white"/>
<path d="M98.9756 6.81274V8.80839H94.7345V16.8563H92.3348V8.80839H88.1354V6.81274H98.9756Z" fill="white"/>
<path d="M102.872 16.8563H100.472V6.81274H102.872V16.8563Z" fill="white"/>
<path d="M116.854 10.9643V13.643C116.854 16.0603 115.797 16.8562 113.207 16.8562H108.343C105.884 16.8562 104.636 15.8584 104.636 13.4232V10.3406C104.636 7.65009 105.723 6.69385 108.343 6.69385H113.16C115.589 6.69385 116.849 7.26997 116.849 9.7764H114.449C114.449 9.01022 113.986 8.68949 112.536 8.68949H108.99C107.541 8.68949 107.036 9.14089 107.036 10.6436V13.1916C107.036 14.5517 107.369 14.8546 108.96 14.8546H112.91C114.11 14.8546 114.443 14.5339 114.443 13.8152V12.7461H110.475V10.9643H116.843H116.854Z" fill="white"/>
<path d="M118.476 6.81274H128.74V8.70742H120.882V10.905H128.497V12.6571H120.882V14.9557H128.74V16.8504H118.476V6.81274Z" fill="white"/>
<path d="M38.9059 23.7694V20.3721H39.8088V23.7694H38.9059Z" fill="white"/>
<path d="M43.444 23.7694L41.3294 21.2273V23.7694H40.4265V20.3721H41.7333L43.6043 22.6944V20.3721H44.5072V23.7694H43.444Z" fill="white"/>
<path d="M45.9328 21.1146V21.7798H48.4453V22.5222H45.9328V23.7636H45.0299V20.3662H48.5641V21.1086H45.9387L45.9328 21.1146Z" fill="white"/>
<path d="M51.5519 23.7992H50.4233C49.6393 23.7992 48.9562 23.5973 48.9562 22.5519V21.5897C48.9562 20.5444 49.6452 20.3484 50.4233 20.3484H51.5519C52.3003 20.3484 53.025 20.5444 53.025 21.5897V22.5519C53.025 23.5973 52.3359 23.7992 51.5519 23.7992ZM52.0924 21.6907C52.0924 21.1858 51.8548 21.1383 51.5519 21.1383H50.4233C50.0966 21.1383 49.8828 21.1858 49.8828 21.6907V22.4569C49.8828 22.9617 50.0907 23.0152 50.4233 23.0152H51.5519C51.8786 23.0152 52.0924 22.9617 52.0924 22.4569V21.6907Z" fill="white"/>
<path d="M56.9393 23.7695C56.5829 23.7695 56.4166 23.5973 56.4166 23.2587V22.9083C56.4166 22.6529 56.3156 22.4806 56.0424 22.4806H54.4445V23.7636H53.5417V20.3662H56.2562C56.9333 20.3662 57.3254 20.5088 57.3254 21.2987C57.3254 21.7917 57.2006 22.0589 56.7492 22.1065V22.1183C57.1234 22.1362 57.3254 22.35 57.3254 22.7301V22.9677C57.3254 23.1993 57.4145 23.1815 57.5392 23.1815V23.7576H56.9452L56.9393 23.7695ZM56.1315 21.1146H54.4386V21.8214H56.0245C56.3394 21.8214 56.4166 21.8095 56.4166 21.4828C56.4166 21.1562 56.3869 21.1086 56.1315 21.1086V21.1146Z" fill="white"/>
<path d="M62.4039 23.7694V21.2749L61.0437 23.7694H60.1646L58.8103 21.2749V23.7694H57.9075V20.3721H59.2558L60.6042 22.8726L62.006 20.3721H63.3127V23.7694H62.4099H62.4039Z" fill="white"/>
<path d="M67.3697 23.7694L67.0727 23.1874H64.9046L64.6017 23.7694H63.5919L65.3442 20.3721H66.6331L68.3854 23.7694H67.3697ZM65.9976 21.0848L65.267 22.4806H66.7103L65.9976 21.0848Z" fill="white"/>
<path d="M70.4405 21.162V23.7694H69.5377V21.162H68.1299V20.3721H71.8958V21.162H70.4465H70.4405Z" fill="white"/>
<path d="M72.2166 23.7694V20.3721H73.1194V23.7694H72.2166Z" fill="white"/>
<path d="M76.1963 23.7992H75.0677C74.2837 23.7992 73.6006 23.5973 73.6006 22.5519V21.5897C73.6006 20.5444 74.2896 20.3484 75.0677 20.3484H76.1963C76.9447 20.3484 77.6694 20.5444 77.6694 21.5897V22.5519C77.6694 23.5973 76.9804 23.7992 76.1963 23.7992ZM76.7368 21.6907C76.7368 21.1858 76.4992 21.1383 76.1963 21.1383H75.0677C74.741 21.1383 74.5272 21.1858 74.5272 21.6907V22.4569C74.5272 22.9617 74.7351 23.0152 75.0677 23.0152H76.1963C76.523 23.0152 76.7368 22.9617 76.7368 22.4569V21.6907Z" fill="white"/>
<path d="M81.2333 23.7694L79.1187 21.2273V23.7694H78.2158V20.3721H79.5226L81.3936 22.6944V20.3721H82.2965V23.7694H81.2333Z" fill="white"/>
<path d="M87.577 21.162V23.7694H86.6742V21.162H85.2664V20.3721H89.0323V21.162H87.583H87.577Z" fill="white"/>
<path d="M89.3589 23.7694V20.3721H92.8872V21.1145H90.2618V21.7381H92.7862V22.3618H90.2618V23.021H92.9169V23.7635H89.3589V23.7694Z" fill="white"/>
<path d="M97.0689 23.5497C96.76 23.8051 96.4214 23.7992 95.9938 23.7992H94.883C94.0871 23.7992 93.3683 23.7517 93.3683 22.5103V21.6313C93.3683 20.5088 94.0098 20.3484 94.8711 20.3484H96.0947C96.8847 20.3484 97.3837 20.4434 97.3837 21.4591V21.5897H96.4511V21.4591C96.4214 21.1562 96.2017 21.1383 95.9047 21.1383H94.7761C94.4019 21.1383 94.3068 21.2928 94.3068 21.7798V22.3084C94.3068 22.8192 94.3722 23.0152 94.7939 23.0152H95.9047C96.2789 23.0152 96.4571 22.9855 96.4571 22.5875V22.4866H97.3896V22.5875C97.3896 22.9617 97.3896 23.3003 97.0748 23.5497H97.0689Z" fill="white"/>
<path d="M101.013 23.7694V22.439H98.7974V23.7694H97.8945V20.3721H98.7974V21.649H101.013V20.3721H101.916V23.7694H101.013Z" fill="white"/>
<path d="M105.521 23.7694L103.407 21.2273V23.7694H102.504V20.3721H103.811L105.682 22.6944V20.3721H106.585V23.7694H105.521Z" fill="white"/>
<path d="M109.655 23.7992H108.527C107.743 23.7992 107.06 23.5973 107.06 22.5519V21.5897C107.06 20.5444 107.749 20.3484 108.527 20.3484H109.655C110.404 20.3484 111.128 20.5444 111.128 21.5897V22.5519C111.128 23.5973 110.439 23.7992 109.655 23.7992ZM110.196 21.6907C110.196 21.1858 109.958 21.1383 109.655 21.1383H108.527C108.2 21.1383 107.986 21.1858 107.986 21.6907V22.4569C107.986 22.9617 108.194 23.0152 108.527 23.0152H109.655C109.982 23.0152 110.196 22.9617 110.196 22.4569V21.6907Z" fill="white"/>
<path d="M111.604 23.7694V20.3721H112.507V22.9795H114.948V23.7694H111.598H111.604Z" fill="white"/>
<path d="M117.87 23.7992H116.742C115.958 23.7992 115.275 23.5973 115.275 22.5519V21.5897C115.275 20.5444 115.964 20.3484 116.742 20.3484H117.87C118.619 20.3484 119.343 20.5444 119.343 21.5897V22.5519C119.343 23.5973 118.654 23.7992 117.87 23.7992ZM118.411 21.6907C118.411 21.1858 118.173 21.1383 117.87 21.1383H116.742C116.415 21.1383 116.201 21.1858 116.201 21.6907V22.4569C116.201 22.9617 116.409 23.0152 116.742 23.0152H117.87C118.197 23.0152 118.411 22.9617 118.411 22.4569V21.6907Z" fill="white"/>
<path d="M122.438 23.7992H121.208C120.406 23.7992 119.795 23.6151 119.795 22.5163V21.6372C119.795 20.5147 120.448 20.3484 121.28 20.3484H122.432C123.151 20.3484 123.84 20.3484 123.84 21.4294H122.919C122.901 21.0849 122.598 21.0849 122.337 21.0849H121.28C120.822 21.0849 120.721 21.2631 120.721 21.8332V22.3856C120.721 22.9855 120.929 23.0508 121.303 23.0508H122.432C122.753 23.0508 122.919 22.9499 122.919 22.4747H121.761V21.8511H123.84V22.445C123.84 23.5913 123.519 23.7992 122.432 23.7992H122.438Z" fill="white"/>
<path d="M126.655 22.6231V23.7694H125.752V22.6231L123.935 20.3721H125.034L126.216 21.8569L127.398 20.3721H128.449L126.667 22.6231H126.655Z" fill="white"/>
</g>
<defs>
<clipPath id="clip0_2501_246">
<rect width="128.74" height="30" fill="white"/>
</clipPath>
</defs>
</svg>
